<svg version="1.1" id="Layer_1" xmlns="http://www.w3.org/2000/svg" xmlns:xlink="http://www.w3.org/1999/xlink" x="0px" y="0px"
	 width="100%" viewBox="0 0 600 539" enable-background="new 0 0 600 539" xml:space="preserve">
<path fill="#FFFFFF" opacity="1.000000" stroke="none" 
	d="
M1.000000,201.000000 
	C1.000000,134.014572 1.000000,67.529160 1.000000,1.043736 
	C1.152052,1.029157 1.304103,1.001800 1.456155,1.001798 
	C201.245667,0.999990 401.035187,1.000000 600.912354,1.000000 
	C600.912354,180.568817 600.912354,360.137665 600.912354,539.853271 
	C401.000092,539.853271 201.000061,539.853271 1.000000,539.853271 
	C1.000000,427.116699 1.000000,314.308350 1.000000,201.000000 
M474.500031,59.091301 
	C337.086456,59.091301 199.672867,59.091301 62.294487,59.091301 
	C62.294487,200.966217 62.294487,342.183350 62.294487,483.406128 
	C220.674088,483.406128 378.726135,483.406128 536.707397,483.406128 
	C536.707397,341.837189 536.707397,200.600998 536.707397,59.091301 
	C516.106628,59.091301 495.803345,59.091301 474.500031,59.091301 
z"/>
<path fill="#030303" opacity="1.000000" stroke="none" 
	d="
M475.000061,59.091301 
	C495.803345,59.091301 516.106628,59.091301 536.707397,59.091301 
	C536.707397,200.600998 536.707397,341.837189 536.707397,483.406128 
	C378.726135,483.406128 220.674088,483.406128 62.294487,483.406128 
	C62.294487,342.183350 62.294487,200.966217 62.294487,59.091301 
	C199.672867,59.091301 337.086456,59.091301 475.000061,59.091301 
M76.716278,74.052727 
	C76.418480,74.214035 76.120682,74.375343 75.822884,74.536652 
	C76.170181,74.692513 76.517471,74.848373 76.967346,75.936043 
	C76.967346,206.709930 76.967346,337.483826 76.967346,468.267975 
	C225.537704,468.267975 373.574188,468.267975 521.483154,468.267975 
	C521.483154,336.776062 521.483154,205.701691 521.483154,74.228683 
	C519.154724,74.228683 517.184998,74.228683 515.215271,74.228683 
	C372.051483,74.228683 228.887695,74.229446 85.723900,74.223175 
	C82.895645,74.223053 80.067383,74.140671 76.716278,74.052727 
M327.500000,471.001221 
	C245.067719,471.001221 162.635437,471.001221 80.203163,471.001221 
	C80.203789,471.227264 80.204414,471.453278 80.205040,471.679321 
	C226.733917,471.679321 373.262787,471.679321 519.791687,471.679321 
	C519.791748,471.453278 519.791870,471.227264 519.791931,471.001221 
	C456.027954,471.001221 392.263977,471.001221 327.500000,471.001221 
z"/>
<path fill="#FBFBFB" opacity="1.000000" stroke="none" 
	d="
M77.239128,74.096664 
	C80.067383,74.140671 82.895645,74.223053 85.723900,74.223175 
	C228.887695,74.229446 372.051483,74.228683 515.215271,74.228683 
	C517.184998,74.228683 519.154724,74.228683 521.483154,74.228683 
	C521.483154,205.701691 521.483154,336.776062 521.483154,468.267975 
	C373.574188,468.267975 225.537704,468.267975 76.967346,468.267975 
	C76.967346,337.483826 76.967346,206.709930 77.076660,75.270889 
	C77.203697,74.436050 77.221413,74.266357 77.239128,74.096664 
M124.089958,381.539520 
	C156.862915,320.807251 189.635880,260.075012 222.931915,198.373398 
	C210.819839,200.324463 199.978149,202.070892 188.144333,203.977127 
	C197.897964,183.649323 207.146011,164.375198 216.306808,145.282898 
	C226.071030,145.282898 235.559784,145.216110 245.047241,145.298248 
	C259.980835,145.427521 271.976593,157.218277 272.012451,171.690933 
	C272.049500,186.645798 260.392761,198.240723 244.942337,198.231445 
	C241.544449,198.229401 239.902954,199.484863 238.467560,202.325668 
	C232.015900,215.094177 225.378326,227.768677 218.827026,240.487000 
	C218.038605,242.017624 217.367157,243.608521 216.302765,245.900940 
	C228.234650,245.900940 239.221558,245.483749 250.165054,245.995224 
	C268.163452,246.836456 279.720886,266.439545 272.144135,282.820526 
	C266.181946,295.710754 255.149521,299.000519 242.044571,298.727539 
	C227.554642,298.425659 213.053574,298.423157 198.563263,298.656921 
	C196.630859,298.688110 193.977371,300.415680 192.942978,302.132172 
	C186.594818,312.666504 180.598267,323.413361 174.522217,334.110840 
	C171.037643,340.245789 167.623962,346.420990 163.929398,353.022919 
	C165.539444,353.189270 166.331207,353.342346 167.123032,353.342682 
	C204.785599,353.357971 242.460175,353.965851 280.107849,353.218475 
	C333.586792,352.156830 366.604095,294.757141 341.435486,247.624573 
	C335.542084,236.588196 327.489990,227.501404 316.837921,220.317108 
	C317.768616,219.294083 318.405670,218.579987 319.057281,217.879440 
	C340.870941,194.428619 345.704681,167.566895 334.208374,137.990326 
	C324.101746,111.989029 296.117340,93.274338 267.721039,93.117615 
	C231.729538,92.918968 195.735886,93.132095 159.743378,93.061195 
	C156.685410,93.055176 155.118515,93.730072 154.040176,96.951492 
	C137.849609,145.319382 121.477592,193.626511 105.172272,241.956024 
	C102.223244,250.697052 99.381508,259.474274 96.176888,269.184235 
	C112.010742,264.689606 126.882408,260.468109 142.799774,255.949799 
	C130.404114,308.209564 118.240913,359.489319 106.077705,410.769043 
	C106.603996,411.050415 107.130287,411.331757 107.656578,411.613098 
	C113.030357,401.812134 118.404137,392.011200 124.089958,381.539520 
M348.240417,125.267838 
	C350.479614,131.640518 352.718781,138.013199 355.115295,144.833710 
	C361.166382,144.833710 367.810394,144.813690 374.454224,144.839325 
	C381.116943,144.865036 387.787018,144.750885 394.440552,145.023102 
	C412.836151,145.775711 426.040894,164.891373 419.697113,181.411942 
	C415.227203,193.052383 404.864288,200.152893 391.809387,200.289078 
	C378.988525,200.422867 366.164978,200.316513 353.344971,200.490356 
	C351.785828,200.511490 349.598328,201.162231 348.795563,202.295670 
	C343.956787,209.127426 339.436798,216.184982 334.786621,223.202484 
	C339.788147,227.565613 345.962982,231.768951 350.544006,237.293793 
	C354.807770,242.436035 359.101715,244.650101 365.700134,244.049576 
	C372.143768,243.463135 378.685577,243.800491 385.178558,243.962219 
	C389.983917,244.081894 394.964050,243.850250 399.547852,245.021454 
	C417.484314,249.604446 429.676514,270.305847 417.720337,287.469635 
	C412.920349,294.360321 406.186615,298.644867 397.703949,299.000549 
	C388.276672,299.395874 378.820038,299.091064 369.569092,299.091064 
	C364.011566,321.944977 354.075195,340.919464 333.251556,353.861786 
	C334.990204,354.101837 335.565979,354.251434 336.141571,354.250763 
	C366.460052,354.215332 396.778534,354.139648 427.097015,354.133240 
	C440.199615,354.130493 452.527893,351.019562 463.903381,344.635620 
	C484.981903,332.806335 499.058685,315.452362 502.039490,291.077728 
	C505.445892,263.222473 494.074127,241.250839 472.306152,224.250366 
	C470.812531,223.083862 469.242096,222.015808 467.414398,220.689331 
	C468.701202,219.533264 469.463074,218.898285 470.169586,218.206772 
	C486.821411,201.908813 494.626282,182.019730 491.578156,158.993301 
	C486.351746,119.510971 455.877625,96.685493 420.641541,94.385582 
	C388.957275,92.317505 357.043182,93.767395 325.230408,93.701675 
	C324.702087,93.700584 324.172760,94.158539 323.165771,94.622658 
	C334.570312,102.436523 342.191467,112.751305 348.240417,125.267838 
M298.478821,450.041351 
	C300.620819,450.041351 302.762817,450.041351 305.795837,450.041351 
	C305.795837,436.752289 305.795837,423.824707 305.795837,410.897156 
	C306.247284,410.814545 306.698730,410.731934 307.150146,410.649323 
	C307.910217,412.021881 308.734955,413.363007 309.419830,414.772095 
	C313.995667,424.186432 318.539307,433.616425 323.098083,443.039062 
	C326.821320,450.734741 329.274536,451.759949 338.073456,449.095184 
	C338.073456,447.376068 338.073456,445.559967 338.073456,443.743896 
	C338.073456,423.265686 338.166443,402.786835 338.035034,382.309479 
	C337.967285,371.750336 340.350891,373.336182 328.388580,373.062958 
	C325.301208,372.992462 324.302765,374.221252 324.343872,377.173065 
	C324.457428,385.329498 324.385864,393.488495 324.387024,401.646484 
	C324.387604,405.658600 324.387115,409.670715 324.387115,413.682831 
	C317.829346,402.703247 312.406708,391.552460 307.031769,380.378754 
	C303.147461,372.303741 301.367706,371.496826 292.304504,373.964569 
	C292.304504,399.153748 292.304504,424.357300 292.304504,450.043304 
	C294.274017,450.043304 295.906921,450.043304 298.478821,450.041351 
M472.446289,418.075592 
	C474.341766,418.701965 476.307220,419.178833 478.102600,420.019073 
	C478.974335,420.427002 480.085724,421.485901 480.128479,422.300476 
	C480.311218,425.783020 480.458893,429.335083 479.920959,432.751862 
	C479.725922,433.990631 477.732117,435.436096 476.285614,435.864929 
	C474.445709,436.410400 472.084229,436.591309 470.397369,435.873077 
	C468.648499,435.128479 466.085266,432.977783 466.221893,431.690887 
	C466.855530,425.721680 464.102051,424.505890 459.011444,425.171173 
	C456.771027,425.463959 454.460510,425.220490 451.677521,425.220490 
	C451.677521,429.600769 451.396759,433.415436 451.736145,437.174133 
	C452.437134,444.938019 457.313263,449.618561 465.078674,449.972626 
	C470.562836,450.222687 476.080780,450.256927 481.560120,449.957306 
	C488.792847,449.561768 493.573364,445.475555 494.215759,438.263672 
	C494.936768,430.169037 494.921112,421.973724 494.586334,413.848572 
	C494.516327,412.148651 491.949554,409.786163 490.030304,409.061615 
	C482.135162,406.081177 474.045990,403.614685 466.163361,401.003967 
	C465.328156,389.833862 465.635162,388.059143 469.292267,387.589447 
	C472.197479,387.216278 476.399109,386.598755 477.906464,388.149323 
	C480.063873,390.368652 480.289825,394.465515 481.301697,397.638763 
	C485.659637,397.638763 490.061554,397.638763 494.837219,397.638763 
	C494.837219,394.253601 494.909271,391.280975 494.823944,388.312866 
	C494.552063,378.855927 489.359711,373.496155 479.974365,373.145020 
	C475.317688,372.970795 470.640228,372.928711 465.987793,373.151947 
	C456.774567,373.593964 451.712341,378.931671 451.580780,388.138397 
	C451.497528,393.966370 451.764954,399.808929 451.441132,405.620758 
	C451.201111,409.928253 453.010223,411.982330 456.983582,413.089478 
	C461.941345,414.470886 466.781281,416.275085 472.446289,418.075592 
M416.545807,401.847473 
	C411.110748,399.006195 414.240021,394.119934 414.381256,390.399902 
	C414.533600,386.387299 418.790924,387.610931 421.622955,387.253540 
	C430.483002,386.135498 427.620758,393.478943 428.849487,397.656799 
	C433.610687,397.656799 438.012238,397.656799 442.857086,397.656799 
	C442.857086,393.491638 443.193756,389.662628 442.785980,385.914612 
	C441.973633,378.447601 437.722656,374.081940 430.171295,373.503510 
	C424.062531,373.035614 417.838257,373.044556 411.746155,373.652679 
	C404.176575,374.408295 400.081848,379.069427 399.780609,386.595306 
	C399.507629,393.414001 399.378662,400.267365 399.806366,407.066437 
	C399.924194,408.939667 401.890869,411.612610 403.646027,412.305420 
	C410.592194,415.047424 417.819702,417.068298 424.870972,419.559998 
	C426.204834,420.031342 428.083527,421.331390 428.206818,422.419495 
	C428.596954,425.862976 428.501038,429.413971 428.095459,432.864868 
	C427.965729,433.968750 426.455414,435.452118 425.287689,435.804779 
	C417.442719,438.173737 414.175537,435.703156 413.986267,427.582123 
	C413.971680,426.956116 413.769226,426.334503 413.631897,425.590729 
	C412.852234,425.470184 412.213409,425.278564 411.577148,425.286652 
	C397.763092,425.462646 399.347931,422.616364 399.905029,437.240112 
	C400.193146,444.802612 405.420746,449.591675 413.225311,449.977997 
	C418.043823,450.216522 422.883820,450.113129 427.712280,450.039764 
	C437.294189,449.894135 442.497894,444.962372 442.869598,435.309265 
	C443.132141,428.490906 442.836914,421.652802 442.967834,414.826935 
	C443.029022,411.636658 441.626984,409.936371 438.680420,409.014679 
	C431.541870,406.781769 424.443878,404.419342 416.545807,401.847473 
M363.670868,395.494690 
	C363.670868,393.076843 363.670868,390.658966 363.670868,387.735748 
	C373.438416,387.735748 382.504181,387.735748 391.616669,387.735748 
	C391.616669,382.645782 391.616669,378.102386 391.616669,373.438812 
	C377.292175,373.438812 363.392426,373.438812 349.217377,373.438812 
	C349.217377,398.969543 349.217377,424.174438 349.217377,450.044952 
	C359.534973,450.044952 369.635345,450.045105 379.735718,450.045013 
	C393.191101,450.044861 393.191620,450.044678 391.771179,436.556305 
	C391.755188,436.404510 391.643127,436.262878 391.254364,435.416321 
	C382.384277,435.416321 373.170044,435.416321 363.909271,435.416321 
	C363.909271,429.777832 363.909271,424.841644 363.909271,419.292572 
	C370.084869,419.292572 376.040558,419.416199 381.983368,419.194550 
	C383.266083,419.146729 385.510345,417.950623 385.589020,417.120239 
	C385.968872,413.110748 385.760132,409.045532 385.760132,404.464050 
	C377.758911,404.464050 370.867249,404.464050 363.670563,404.464050 
	C363.670563,401.431824 363.670563,398.950531 363.670868,395.494690 
M185.508331,406.379852 
	C183.946701,406.379852 182.385086,406.379852 180.999969,406.379852 
	C180.999969,399.719299 180.999969,393.962097 180.999969,387.741333 
	C190.425446,387.741333 199.514496,387.741333 208.816345,387.741333 
	C208.816345,382.701904 208.816345,378.138672 208.816345,373.516968 
	C194.462540,373.516968 180.410767,373.516968 166.249695,373.516968 
	C166.249695,399.149536 166.249695,424.373016 166.249695,449.619537 
	C171.159592,449.619537 175.692780,449.619537 180.682465,449.619537 
	C180.682465,439.942719 180.682465,430.688354 180.682465,421.005188 
	C185.099350,421.005188 189.063660,421.005188 193.027969,421.005188 
	C203.244507,421.005188 203.145477,421.008057 202.848465,410.707367 
	C202.758057,407.571991 201.849289,406.140442 198.503525,406.326111 
	C194.516586,406.547302 190.507996,406.378143 185.508331,406.379852 
M283.235016,385.201813 
	C283.235016,381.410889 283.235016,377.619965 283.235016,373.384827 
	C280.973267,373.278717 279.190247,373.127625 277.406830,373.122742 
	C268.424072,373.098206 259.441193,373.110260 250.458359,373.112305 
	C239.443161,373.114777 239.527512,373.112885 239.933075,384.068268 
	C240.034210,386.800018 240.794174,388.028778 243.678665,387.879913 
	C247.095276,387.703613 250.527939,387.838501 254.215805,387.838501 
	C254.215805,390.090179 254.216110,391.726837 254.215729,393.363495 
	C254.211609,410.830048 254.145309,428.297211 254.317703,445.762024 
	C254.331909,447.201324 255.825562,449.724640 256.873047,449.858673 
	C260.739441,450.353302 264.707214,450.055298 269.036285,450.055298 
	C269.036285,439.201447 269.036285,429.088745 269.036285,418.976044 
	C269.036285,408.715302 269.036285,398.454559 269.036285,387.839874 
	C272.047333,387.839874 274.530426,388.059906 276.953583,387.773224 
	C279.055542,387.524567 281.089600,386.701965 283.235016,385.201813 
M224.554764,373.122742 
	C222.461349,373.122742 220.367935,373.122742 218.229645,373.122742 
	C218.229645,399.188995 218.229645,424.404114 218.229645,449.761139 
	C223.055435,449.761139 227.470749,449.761139 232.481155,449.761139 
	C232.481155,447.698547 232.481140,445.916718 232.481155,444.134888 
	C232.481186,422.808685 232.476807,401.482513 232.483734,380.156311 
	C232.486023,373.124847 232.499390,373.124847 224.554764,373.122742 
z"/>
<path fill="#0C0C0C" opacity="1.000000" stroke="none" 
	d="
M328.000000,471.001221 
	C392.263977,471.001221 456.027954,471.001221 519.791931,471.001221 
	C519.791870,471.227264 519.791748,471.453278 519.791687,471.679321 
	C373.262787,471.679321 226.733917,471.679321 80.205040,471.679321 
	C80.204414,471.453278 80.203789,471.227264 80.203163,471.001221 
	C162.635437,471.001221 245.067719,471.001221 328.000000,471.001221 
z"/>
<path fill="#0C0C0C" opacity="1.000000" stroke="none" 
	d="
M76.977707,74.074699 
	C77.221413,74.266357 77.203697,74.436050 77.025375,74.804985 
	C76.517471,74.848373 76.170181,74.692513 75.822884,74.536652 
	C76.120682,74.375343 76.418480,74.214035 76.977707,74.074699 
z"/>
<path fill="#020202" opacity="1.000000" stroke="none" 
	d="
M123.933929,381.874878 
	C118.404137,392.011200 113.030357,401.812134 107.656578,411.613098 
	C107.130287,411.331757 106.603996,411.050415 106.077705,410.769043 
	C118.240913,359.489319 130.404114,308.209564 142.799774,255.949799 
	C126.882408,260.468109 112.010742,264.689606 96.176888,269.184235 
	C99.381508,259.474274 102.223244,250.697052 105.172272,241.956024 
	C121.477592,193.626511 137.849609,145.319382 154.040176,96.951492 
	C155.118515,93.730072 156.685410,93.055176 159.743378,93.061195 
	C195.735886,93.132095 231.729538,92.918968 267.721039,93.117615 
	C296.117340,93.274338 324.101746,111.989029 334.208374,137.990326 
	C345.704681,167.566895 340.870941,194.428619 319.057281,217.879440 
	C318.405670,218.579987 317.768616,219.294083 316.837921,220.317108 
	C327.489990,227.501404 335.542084,236.588196 341.435486,247.624573 
	C366.604095,294.757141 333.586792,352.156830 280.107849,353.218475 
	C242.460175,353.965851 204.785599,353.357971 167.123032,353.342682 
	C166.331207,353.342346 165.539444,353.189270 163.929398,353.022919 
	C167.623962,346.420990 171.037643,340.245789 174.522217,334.110840 
	C180.598267,323.413361 186.594818,312.666504 192.942978,302.132172 
	C193.977371,300.415680 196.630859,298.688110 198.563263,298.656921 
	C213.053574,298.423157 227.554642,298.425659 242.044571,298.727539 
	C255.149521,299.000519 266.181946,295.710754 272.144135,282.820526 
	C279.720886,266.439545 268.163452,246.836456 250.165054,245.995224 
	C239.221558,245.483749 228.234650,245.900940 216.302765,245.900940 
	C217.367157,243.608521 218.038605,242.017624 218.827026,240.487000 
	C225.378326,227.768677 232.015900,215.094177 238.467560,202.325668 
	C239.902954,199.484863 241.544449,198.229401 244.942337,198.231445 
	C260.392761,198.240723 272.049500,186.645798 272.012451,171.690933 
	C271.976593,157.218277 259.980835,145.427521 245.047241,145.298248 
	C235.559784,145.216110 226.071030,145.282898 216.306808,145.282898 
	C207.146011,164.375198 197.897964,183.649323 188.144333,203.977127 
	C199.978149,202.070892 210.819839,200.324463 222.931915,198.373398 
	C189.635880,260.075012 156.862915,320.807251 123.933929,381.874878 
z"/>
<path fill="#020202" opacity="1.000000" stroke="none" 
	d="
M348.098450,124.918137 
	C342.191467,112.751305 334.570312,102.436523 323.165771,94.622658 
	C324.172760,94.158539 324.702087,93.700584 325.230408,93.701675 
	C357.043182,93.767395 388.957275,92.317505 420.641541,94.385582 
	C455.877625,96.685493 486.351746,119.510971 491.578156,158.993301 
	C494.626282,182.019730 486.821411,201.908813 470.169586,218.206772 
	C469.463074,218.898285 468.701202,219.533264 467.414398,220.689331 
	C469.242096,222.015808 470.812531,223.083862 472.306152,224.250366 
	C494.074127,241.250839 505.445892,263.222473 502.039490,291.077728 
	C499.058685,315.452362 484.981903,332.806335 463.903381,344.635620 
	C452.527893,351.019562 440.199615,354.130493 427.097015,354.133240 
	C396.778534,354.139648 366.460052,354.215332 336.141571,354.250763 
	C335.565979,354.251434 334.990204,354.101837 333.251556,353.861786 
	C354.075195,340.919464 364.011566,321.944977 369.569092,299.091064 
	C378.820038,299.091064 388.276672,299.395874 397.703949,299.000549 
	C406.186615,298.644867 412.920349,294.360321 417.720337,287.469635 
	C429.676514,270.305847 417.484314,249.604446 399.547852,245.021454 
	C394.964050,243.850250 389.983917,244.081894 385.178558,243.962219 
	C378.685577,243.800491 372.143768,243.463135 365.700134,244.049576 
	C359.101715,244.650101 354.807770,242.436035 350.544006,237.293793 
	C345.962982,231.768951 339.788147,227.565613 334.786621,223.202484 
	C339.436798,216.184982 343.956787,209.127426 348.795563,202.295670 
	C349.598328,201.162231 351.785828,200.511490 353.344971,200.490356 
	C366.164978,200.316513 378.988525,200.422867 391.809387,200.289078 
	C404.864288,200.152893 415.227203,193.052383 419.697113,181.411942 
	C426.040894,164.891373 412.836151,145.775711 394.440552,145.023102 
	C387.787018,144.750885 381.116943,144.865036 374.454224,144.839325 
	C367.810394,144.813690 361.166382,144.833710 355.115295,144.833710 
	C352.718781,138.013199 350.479614,131.640518 348.098450,124.918137 
z"/>
<path fill="#070707" opacity="1.000000" stroke="none" 
	d="
M298.009338,450.042328 
	C295.906921,450.043304 294.274017,450.043304 292.304504,450.043304 
	C292.304504,424.357300 292.304504,399.153748 292.304504,373.964569 
	C301.367706,371.496826 303.147461,372.303741 307.031769,380.378754 
	C312.406708,391.552460 317.829346,402.703247 324.387115,413.682831 
	C324.387115,409.670715 324.387604,405.658600 324.387024,401.646484 
	C324.385864,393.488495 324.457428,385.329498 324.343872,377.173065 
	C324.302765,374.221252 325.301208,372.992462 328.388580,373.062958 
	C340.350891,373.336182 337.967285,371.750336 338.035034,382.309479 
	C338.166443,402.786835 338.073456,423.265686 338.073456,443.743896 
	C338.073456,445.559967 338.073456,447.376068 338.073456,449.095184 
	C329.274536,451.759949 326.821320,450.734741 323.098083,443.039062 
	C318.539307,433.616425 313.995667,424.186432 309.419830,414.772095 
	C308.734955,413.363007 307.910217,412.021881 307.150146,410.649323 
	C306.698730,410.731934 306.247284,410.814545 305.795837,410.897156 
	C305.795837,423.824707 305.795837,436.752289 305.795837,450.041351 
	C302.762817,450.041351 300.620819,450.041351 298.009338,450.042328 
z"/>
<path fill="#080808" opacity="1.000000" stroke="none" 
	d="
M472.059204,417.986145 
	C466.781281,416.275085 461.941345,414.470886 456.983582,413.089478 
	C453.010223,411.982330 451.201111,409.928253 451.441132,405.620758 
	C451.764954,399.808929 451.497528,393.966370 451.580780,388.138397 
	C451.712341,378.931671 456.774567,373.593964 465.987793,373.151947 
	C470.640228,372.928711 475.317688,372.970795 479.974365,373.145020 
	C489.359711,373.496155 494.552063,378.855927 494.823944,388.312866 
	C494.909271,391.280975 494.837219,394.253601 494.837219,397.638763 
	C490.061554,397.638763 485.659637,397.638763 481.301697,397.638763 
	C480.289825,394.465515 480.063873,390.368652 477.906464,388.149323 
	C476.399109,386.598755 472.197479,387.216278 469.292267,387.589447 
	C465.635162,388.059143 465.328156,389.833862 466.163361,401.003967 
	C474.045990,403.614685 482.135162,406.081177 490.030304,409.061615 
	C491.949554,409.786163 494.516327,412.148651 494.586334,413.848572 
	C494.921112,421.973724 494.936768,430.169037 494.215759,438.263672 
	C493.573364,445.475555 488.792847,449.561768 481.560120,449.957306 
	C476.080780,450.256927 470.562836,450.222687 465.078674,449.972626 
	C457.313263,449.618561 452.437134,444.938019 451.736145,437.174133 
	C451.396759,433.415436 451.677521,429.600769 451.677521,425.220490 
	C454.460510,425.220490 456.771027,425.463959 459.011444,425.171173 
	C464.102051,424.505890 466.855530,425.721680 466.221893,431.690887 
	C466.085266,432.977783 468.648499,435.128479 470.397369,435.873077 
	C472.084229,436.591309 474.445709,436.410400 476.285614,435.864929 
	C477.732117,435.436096 479.725922,433.990631 479.920959,432.751862 
	C480.458893,429.335083 480.311218,425.783020 480.128479,422.300476 
	C480.085724,421.485901 478.974335,420.427002 478.102600,420.019073 
	C476.307220,419.178833 474.341766,418.701965 472.059204,417.986145 
z"/>
<path fill="#080808" opacity="1.000000" stroke="none" 
	d="
M416.937683,401.978271 
	C424.443878,404.419342 431.541870,406.781769 438.680420,409.014679 
	C441.626984,409.936371 443.029022,411.636658 442.967834,414.826935 
	C442.836914,421.652802 443.132141,428.490906 442.869598,435.309265 
	C442.497894,444.962372 437.294189,449.894135 427.712280,450.039764 
	C422.883820,450.113129 418.043823,450.216522 413.225311,449.977997 
	C405.420746,449.591675 400.193146,444.802612 399.905029,437.240112 
	C399.347931,422.616364 397.763092,425.462646 411.577148,425.286652 
	C412.213409,425.278564 412.852234,425.470184 413.631897,425.590729 
	C413.769226,426.334503 413.971680,426.956116 413.986267,427.582123 
	C414.175537,435.703156 417.442719,438.173737 425.287689,435.804779 
	C426.455414,435.452118 427.965729,433.968750 428.095459,432.864868 
	C428.501038,429.413971 428.596954,425.862976 428.206818,422.419495 
	C428.083527,421.331390 426.204834,420.031342 424.870972,419.559998 
	C417.819702,417.068298 410.592194,415.047424 403.646027,412.305420 
	C401.890869,411.612610 399.924194,408.939667 399.806366,407.066437 
	C399.378662,400.267365 399.507629,393.414001 399.780609,386.595306 
	C400.081848,379.069427 404.176575,374.408295 411.746155,373.652679 
	C417.838257,373.044556 424.062531,373.035614 430.171295,373.503510 
	C437.722656,374.081940 441.973633,378.447601 442.785980,385.914612 
	C443.193756,389.662628 442.857086,393.491638 442.857086,397.656799 
	C438.012238,397.656799 433.610687,397.656799 428.849487,397.656799 
	C427.620758,393.478943 430.483002,386.135498 421.622955,387.253540 
	C418.790924,387.610931 414.533600,386.387299 414.381256,390.399902 
	C414.240021,394.119934 411.110748,399.006195 416.937683,401.978271 
z"/>
<path fill="#060606" opacity="1.000000" stroke="none" 
	d="
M363.670715,395.981964 
	C363.670563,398.950531 363.670563,401.431824 363.670563,404.464050 
	C370.867249,404.464050 377.758911,404.464050 385.760132,404.464050 
	C385.760132,409.045532 385.968872,413.110748 385.589020,417.120239 
	C385.510345,417.950623 383.266083,419.146729 381.983368,419.194550 
	C376.040558,419.416199 370.084869,419.292572 363.909271,419.292572 
	C363.909271,424.841644 363.909271,429.777832 363.909271,435.416321 
	C373.170044,435.416321 382.384277,435.416321 391.254364,435.416321 
	C391.643127,436.262878 391.755188,436.404510 391.771179,436.556305 
	C393.191620,450.044678 393.191101,450.044861 379.735718,450.045013 
	C369.635345,450.045105 359.534973,450.044952 349.217377,450.044952 
	C349.217377,424.174438 349.217377,398.969543 349.217377,373.438812 
	C363.392426,373.438812 377.292175,373.438812 391.616669,373.438812 
	C391.616669,378.102386 391.616669,382.645782 391.616669,387.735748 
	C382.504181,387.735748 373.438416,387.735748 363.670868,387.735748 
	C363.670868,390.658966 363.670868,393.076843 363.670715,395.981964 
z"/>
<path fill="#070707" opacity="1.000000" stroke="none" 
	d="
M186.008560,406.378967 
	C190.507996,406.378143 194.516586,406.547302 198.503525,406.326111 
	C201.849289,406.140442 202.758057,407.571991 202.848465,410.707367 
	C203.145477,421.008057 203.244507,421.005188 193.027969,421.005188 
	C189.063660,421.005188 185.099350,421.005188 180.682465,421.005188 
	C180.682465,430.688354 180.682465,439.942719 180.682465,449.619537 
	C175.692780,449.619537 171.159592,449.619537 166.249695,449.619537 
	C166.249695,424.373016 166.249695,399.149536 166.249695,373.516968 
	C180.410767,373.516968 194.462540,373.516968 208.816345,373.516968 
	C208.816345,378.138672 208.816345,382.701904 208.816345,387.741333 
	C199.514496,387.741333 190.425446,387.741333 180.999969,387.741333 
	C180.999969,393.962097 180.999969,399.719299 180.999969,406.379852 
	C182.385086,406.379852 183.946701,406.379852 186.008560,406.378967 
z"/>
<path fill="#070707" opacity="1.000000" stroke="none" 
	d="
M283.194336,385.667419 
	C281.089600,386.701965 279.055542,387.524567 276.953583,387.773224 
	C274.530426,388.059906 272.047333,387.839874 269.036285,387.839874 
	C269.036285,398.454559 269.036285,408.715302 269.036285,418.976044 
	C269.036285,429.088745 269.036285,439.201447 269.036285,450.055298 
	C264.707214,450.055298 260.739441,450.353302 256.873047,449.858673 
	C255.825562,449.724640 254.331909,447.201324 254.317703,445.762024 
	C254.145309,428.297211 254.211609,410.830048 254.215729,393.363495 
	C254.216110,391.726837 254.215805,390.090179 254.215805,387.838501 
	C250.527939,387.838501 247.095276,387.703613 243.678665,387.879913 
	C240.794174,388.028778 240.034210,386.800018 239.933075,384.068268 
	C239.527512,373.112885 239.443161,373.114777 250.458359,373.112305 
	C259.441193,373.110260 268.424072,373.098206 277.406830,373.122742 
	C279.190247,373.127625 280.973267,373.278717 283.235016,373.384827 
	C283.235016,377.619965 283.235016,381.410889 283.194336,385.667419 
z"/>
<path fill="#030303" opacity="1.000000" stroke="none" 
	d="
M225.021103,373.141663 
	C232.499390,373.124847 232.486023,373.124847 232.483734,380.156311 
	C232.476807,401.482513 232.481186,422.808685 232.481155,444.134888 
	C232.481140,445.916718 232.481155,447.698547 232.481155,449.761139 
	C227.470749,449.761139 223.055435,449.761139 218.229645,449.761139 
	C218.229645,424.404114 218.229645,399.188995 218.229645,373.122742 
	C220.367935,373.122742 222.461349,373.122742 225.021103,373.141663 
z"/>
</svg>